<?xml version="1.0" encoding="utf-8"?>
<!-- Generator: Adobe Illustrator 21.1.0, SVG Export Plug-In . SVG Version: 6.00 Build 0)  -->
<svg version="1.1" id="Layer_1" xmlns="http://www.w3.org/2000/svg" xmlns:xlink="http://www.w3.org/1999/xlink" x="0px" y="0px"
	 viewBox="0 0 96 76" style="enable-background:new 0 0 96 76;" xml:space="preserve">
<style type="text/css">
	.st0{fill:#0672BA;}
</style>
<title>Artboard 10</title>
<g>
	<path class="st0" d="M96,8c0,4.4-3.6,8-8,8H8c-4.4,0-8-3.6-8-8s3.6-8,8-8h80C92.4,0,96,3.6,96,8z M88,30H8c-4.4,0-8,3.6-8,8
		s3.6,8,8,8h80c4.4,0,8-3.6,8-8S92.4,30,88,30z M88,60H8c-4.4,0-8,3.6-8,8s3.6,8,8,8h80c4.4,0,8-3.6,8-8S92.4,60,88,60z"/>
</g>
</svg>
