<svg id="Layer_1" data-name="Layer 1" xmlns="http://www.w3.org/2000/svg" viewBox="0 0 234.72 79.59"><defs><style>.cls-1{fill:#0672ba;}.cls-2{fill:#01a6dc;}</style></defs><title>loho-thehug</title><path class="cls-1" d="M89.78,15.64H82.5V9h23.68v6.64H98.87V36.24H89.78Z"/><path class="cls-1" d="M107.88,7.74H117v9.47a9.28,9.28,0,0,1,2.52-1,12,12,0,0,1,3.11-.4q4.19,0,6.15,2t2,6V36.24h-9.13V24.48a2.15,2.15,0,0,0-.44-1.54,2.15,2.15,0,0,0-1.54-.44,3.41,3.41,0,0,0-1.42.34,4.09,4.09,0,0,0-1.21.8v12.6h-9.09Z"/><path class="cls-1" d="M138.87,35.48A9.53,9.53,0,0,1,134.58,32,10,10,0,0,1,133,26.3a10.38,10.38,0,0,1,2.83-7.72q2.83-2.81,8.25-2.81a11.7,11.7,0,0,1,7.95,2.54,8.81,8.81,0,0,1,2.92,7v3.47H141.36a3.48,3.48,0,0,0,2.07,1.75,12,12,0,0,0,4.1.57A20,20,0,0,0,151,30.8a16.06,16.06,0,0,0,2.88-.74v5.16q-3,1.44-8.71,1.44A15.91,15.91,0,0,1,138.87,35.48Zm8.33-11.42v-.55a2,2,0,0,0-.66-1.56,3.15,3.15,0,0,0-2.14-.59,3.25,3.25,0,0,0-2.33.7,2.67,2.67,0,0,0-.72,2Z"/><path class="cls-2" d="M157.51,9h9.09v9.51h8.08V9h9.09V36.24h-9.09V26.72H166.6v9.51h-9.09Z"/><path class="cls-2" d="M188.89,34.65a8,8,0,0,1-1.95-5.77V16.19H196V28a2,2,0,0,0,.51,1.5,2.12,2.12,0,0,0,1.52.49,3.4,3.4,0,0,0,1.42-.34,4.08,4.08,0,0,0,1.21-.8V16.19h9.09v20h-8.54L201,34.93a9.6,9.6,0,0,1-2.92,1.27,14.49,14.49,0,0,1-3.76.47A7.24,7.24,0,0,1,188.89,34.65Z"/><path class="cls-2" d="M215.95,43.42a17.33,17.33,0,0,1-4.06-.76V37.21A19.6,19.6,0,0,0,216,38a42.42,42.42,0,0,0,4.67.27q4.44,0,4.44-.89a.51.51,0,0,0-.42-.51,5.85,5.85,0,0,0-1.48-.13h-5q-6.76,0-6.76-3.93a3.7,3.7,0,0,1,.82-2.41,5,5,0,0,1,2.39-1.52,6,6,0,0,1-2.52-2.2,6.53,6.53,0,0,1-.78-3.38A6.43,6.43,0,0,1,214,17.63q2.73-1.86,7.89-1.86a23.31,23.31,0,0,1,2.41.15q1.39.15,2.07.27h8l-.17,5.45H231.8a3.34,3.34,0,0,1,.51,1.82,6.54,6.54,0,0,1-1.78,4.9q-1.78,1.73-5.54,1.73L222.71,30q-1.9.17-1.9,1a.49.49,0,0,0,.32.51,2.7,2.7,0,0,0,1,.13h4.06a7.84,7.84,0,0,1,5,1.44,5.07,5.07,0,0,1,1.82,4.23A5.24,5.24,0,0,1,230,42q-2.9,1.69-8.86,1.69Q218.61,43.68,215.95,43.42Zm8.14-18.75a2.16,2.16,0,0,0,.57-1.71A2.21,2.21,0,0,0,224,21.2a4.21,4.21,0,0,0-4.12,0,2.18,2.18,0,0,0-.63,1.73,2.09,2.09,0,0,0,.61,1.67,3.22,3.22,0,0,0,2.09.53A3.32,3.32,0,0,0,224.09,24.67Z"/><path class="cls-1" d="M62.46,20.87V2.62H49.2v6.9L38.33.27,0,33,9.3,43.93l2.13-1.82V76H65.18V42.11l2.13,1.82L76.62,33ZM52.58,6h6.49V18l-6.49-5.55ZM44.13,72.6H32.51V55.53H44.13Zm17.66,0H47.52V52.14H29.12V72.63H14.85V39.22l23.48-20,23.48,20Zm5.15-33.45L38.33,14.74,9.72,39.16,4.77,33.36,38.33,4.72,71.88,33.36Z"/><rect class="cls-2" x="89.04" y="48.08" width="140" height="1"/><path class="cls-1" d="M102,58h5.63a4,4,0,0,1,4.51,4.42,4.12,4.12,0,0,1-1.23,3.16,4.72,4.72,0,0,1-3.37,1.15H103.2v5.43H102Zm5.43,7.77a3.54,3.54,0,0,0,2.6-.89,3.29,3.29,0,0,0,.9-2.45,3.51,3.51,0,0,0-.86-2.55,3.38,3.38,0,0,0-2.53-.88H103.2v6.78Z"/><path class="cls-1" d="M115.4,71.07a5.82,5.82,0,0,1-1.29-4.17q0-5.37,4.82-5.37a3.88,3.88,0,0,1,4.31,4.18V67.6h-7.92a5.26,5.26,0,0,0,.51,2.21A2.63,2.63,0,0,0,117.21,71a6.84,6.84,0,0,0,2.54.38,7.47,7.47,0,0,0,2.82-.55v1a8,8,0,0,1-3.06.55A5.5,5.5,0,0,1,115.4,71.07Zm6.74-4.41v-1q0-3.12-3.19-3.12a3.41,3.41,0,0,0-2.8,1,4.86,4.86,0,0,0-.83,3.09Z"/><path class="cls-1" d="M126,72V70.88a9.47,9.47,0,0,0,3.06.48,4.3,4.3,0,0,0,2.2-.42,1.54,1.54,0,0,0,.66-1.41,1.64,1.64,0,0,0-.25-1,1.81,1.81,0,0,0-.74-.57q-.48-.22-1.52-.57l-.55-.2a17.16,17.16,0,0,1-1.77-.67,2.54,2.54,0,0,1-1-.81,2.84,2.84,0,0,1,.52-3.53,4.92,4.92,0,0,1,2.92-.68,9.81,9.81,0,0,1,2.77.37V63a8.7,8.7,0,0,0-2.6-.4,4.48,4.48,0,0,0-2.18.38,1.38,1.38,0,0,0-.64,1.29,1.49,1.49,0,0,0,.26.94,1.9,1.9,0,0,0,.78.56q.52.22,1.68.59a14.12,14.12,0,0,1,2,.78,2.79,2.79,0,0,1,1.09.92,2.64,2.64,0,0,1,.37,1.48q0,2.86-3.92,2.86A10.23,10.23,0,0,1,126,72Z"/><path class="cls-1" d="M137.43,71.63a3,3,0,0,1-.75-2.16V62.76h-1.63v-1h1.63V59l1.21-.4v3.12h3l-.07,1H137.9v6.67a2,2,0,0,0,.48,1.5,2.11,2.11,0,0,0,1.54.48,4,4,0,0,0,1.3-.24v1a4.81,4.81,0,0,1-1.65.26A2.84,2.84,0,0,1,137.43,71.63Z"/><path class="cls-1" d="M153.41,70.55a7.38,7.38,0,0,1-1.63-5.06,9.15,9.15,0,0,1,1.55-5.68q1.55-2,4.94-2a12.09,12.09,0,0,1,4,.64v1.08a11.27,11.27,0,0,0-3.94-.66,4.82,4.82,0,0,0-4.17,1.71A8.31,8.31,0,0,0,153,65.49q0,5.87,5.48,5.87a13.68,13.68,0,0,0,2-.15,10.06,10.06,0,0,0,1.84-.44v1.08a13.5,13.5,0,0,1-4,.55A6.17,6.17,0,0,1,153.41,70.55Z"/><path class="cls-1" d="M164.93,71A6,6,0,0,1,163.75,67,6,6,0,0,1,165,62.9a5.85,5.85,0,0,1,7.54,0A5.94,5.94,0,0,1,173.71,67a6,6,0,0,1-1.2,4.07,5.94,5.94,0,0,1-7.58,0Zm6.7-.73A5.23,5.23,0,0,0,172.5,67a5.14,5.14,0,0,0-.88-3.32,4.52,4.52,0,0,0-5.81,0,5.14,5.14,0,0,0-.88,3.32,5.23,5.23,0,0,0,.87,3.34,4.55,4.55,0,0,0,5.83,0Z"/><path class="cls-1" d="M176.57,61.75h1.06l.11,1.28a6.35,6.35,0,0,1,1.88-1.11,6.63,6.63,0,0,1,2.34-.38,3.84,3.84,0,0,1,2.83.9,3.94,3.94,0,0,1,.89,2.86v6.89h-1.21V65.31a4,4,0,0,0-.27-1.65,1.67,1.67,0,0,0-.92-.86,5.67,5.67,0,0,0-3.83.14,5.53,5.53,0,0,0-1.66,1.11v8.12h-1.21Z"/><path class="cls-1" d="M190.37,71.63a3,3,0,0,1-.75-2.16V62.76H188v-1h1.63V59l1.21-.4v3.12h3l-.07,1h-2.95v6.67a2,2,0,0,0,.48,1.5,2.11,2.11,0,0,0,1.54.48,4,4,0,0,0,1.3-.24v1a4.81,4.81,0,0,1-1.65.26A2.84,2.84,0,0,1,190.37,71.63Z"/><path class="cls-1" d="M196.57,61.75h1.06l.13,1.45a10.11,10.11,0,0,1,1.84-1,13,13,0,0,1,2.08-.68v1a14.47,14.47,0,0,0-2.12.72,8.94,8.94,0,0,0-1.77.94v8h-1.21Z"/><path class="cls-1" d="M203.85,71A6,6,0,0,1,202.66,67a6,6,0,0,1,1.21-4.06,5.85,5.85,0,0,1,7.54,0A5.94,5.94,0,0,1,212.63,67a6,6,0,0,1-1.2,4.07,5.94,5.94,0,0,1-7.58,0Zm6.7-.73a5.23,5.23,0,0,0,.87-3.34,5.14,5.14,0,0,0-.88-3.32,4.52,4.52,0,0,0-5.81,0,5.14,5.14,0,0,0-.88,3.32,5.23,5.23,0,0,0,.87,3.34,4.55,4.55,0,0,0,5.83,0Z"/><path class="cls-1" d="M216,71.88a2.42,2.42,0,0,1-.49-1.71V57.35h1.21V70.13a1.57,1.57,0,0,0,.22,1,.85.85,0,0,0,.7.27,3.67,3.67,0,0,0,1-.13v1a3.74,3.74,0,0,1-1.17.15A1.91,1.91,0,0,1,216,71.88Z"/></svg>